<svg width="192.000000" height="32.000000" viewBox="0 0 192 32" fill="none" xmlns="http://www.w3.org/2000/svg" xmlns:xlink="http://www.w3.org/1999/xlink">
	<desc>
			Created with Pixso.
	</desc>
	<defs/>
	<path id="Интерьер." d="M4.17 -0.2L-0.44 -0.2L-0.44 25L3.91 25L17.45 7.14L17.45 25L22.05 25L22.05 -0.2L17.7 -0.2L4.17 17.69L4.17 -0.2ZM88.95 16.82Q89.02 15.96 89.02 15.49Q89.02 12.54 87.77 10.29Q87.1 9.08 86.15 8.16Q85.34 7.37 84.32 6.8Q84.06 6.66 83.8 6.53Q81.79 5.55 79.3 5.55Q76.93 5.55 74.96 6.43Q74.56 6.61 74.18 6.82Q73.03 7.46 72.13 8.36Q71.27 9.22 70.64 10.33Q70.39 10.77 70.19 11.23Q69.37 13.13 69.37 15.38Q69.37 17.72 70.25 19.65Q70.44 20.08 70.68 20.48Q71.15 21.29 71.77 21.97Q72.86 23.18 74.4 23.99Q76.82 25.25 79.98 25.25Q82.47 25.25 84.45 24.46Q85.89 23.88 86.97 22.9Q87.37 22.53 87.73 22.11L85.31 19.34Q84.57 20.1 83.67 20.58Q82.11 21.43 80.09 21.43Q77.83 21.43 76.24 20.4Q76.08 20.3 75.93 20.19Q75.22 19.66 74.74 18.97Q74.09 18.04 73.87 16.82L88.95 16.82ZM109.17 6.55Q107.13 5.55 104.6 5.55Q102.63 5.55 100.98 6.24Q100.12 6.6 99.4 7.15Q98.76 7.64 98.23 8.29L98.23 5.77L93.95 5.77L93.95 31.98L98.45 31.98L98.45 22.66Q99.19 23.51 100.11 24.08Q101.99 25.25 104.6 25.25Q107.16 25.25 109.22 24.24Q109.43 24.14 109.63 24.03Q110.61 23.48 111.41 22.74Q112.4 21.8 113.1 20.55Q113.15 20.46 113.2 20.38Q114.36 18.19 114.36 15.38Q114.36 12.57 113.19 10.39Q113.14 10.31 113.1 10.24Q112.42 9.03 111.46 8.11Q110.64 7.34 109.63 6.78Q109.41 6.66 109.17 6.55ZM157.96 16.82Q158.03 15.96 158.03 15.49Q158.03 12.54 156.78 10.29Q156.11 9.08 155.16 8.16Q154.35 7.37 153.33 6.8Q153.08 6.66 152.82 6.53Q150.8 5.55 148.31 5.55Q145.95 5.55 143.97 6.43Q143.58 6.61 143.19 6.82Q142.04 7.46 141.14 8.36Q140.28 9.22 139.65 10.33Q139.4 10.77 139.2 11.23Q138.38 13.13 138.38 15.38Q138.38 17.72 139.26 19.65Q139.45 20.08 139.69 20.48Q140.16 21.29 140.78 21.97Q141.88 23.18 143.41 23.99Q145.83 25.25 149 25.25Q151.48 25.25 153.46 24.46Q154.9 23.88 155.98 22.9Q156.39 22.53 156.74 22.11L154.32 19.34Q153.58 20.1 152.69 20.58Q151.12 21.43 149.1 21.43Q146.84 21.43 145.25 20.4Q145.09 20.3 144.94 20.19Q144.23 19.66 143.75 18.97Q143.11 18.04 142.88 16.82L157.96 16.82ZM178.19 6.55Q176.14 5.55 173.62 5.55Q171.64 5.55 169.99 6.24Q169.13 6.6 168.41 7.15Q167.77 7.64 167.24 8.29L167.24 5.77L162.96 5.77L162.96 31.98L167.46 31.98L167.46 22.66Q168.2 23.51 169.12 24.08Q171 25.25 173.62 25.25Q176.17 25.25 178.23 24.24Q178.44 24.14 178.64 24.03Q179.62 23.48 180.42 22.74Q181.41 21.8 182.11 20.55Q182.16 20.46 182.21 20.38Q183.37 18.19 183.37 15.38Q183.37 12.57 182.2 10.39Q182.16 10.31 182.11 10.24Q181.43 9.03 180.47 8.11Q179.66 7.34 178.64 6.78Q178.42 6.66 178.19 6.55ZM33.11 5.77L28.61 5.77L28.61 25L33.11 25L33.11 17.4L42.8 17.4L42.8 25L47.3 25L47.3 5.77L42.8 5.77L42.8 13.59L33.11 13.59L33.11 5.77ZM61.84 9.59L68.57 9.59L68.57 5.77L50.57 5.77L50.57 9.59L57.34 9.59L57.34 25L61.84 25L61.84 9.59ZM134.11 13.76Q132.15 12.11 128.48 12.11L123.33 12.08L123.33 5.77L118.83 5.77L118.83 25L127.83 25.03Q131.75 25.07 133.91 23.34Q134.61 22.78 135.09 22.06Q136.07 20.58 136.07 18.45Q136.07 16.24 135.03 14.76Q134.64 14.21 134.11 13.76ZM76.63 9.77Q77.81 9.16 79.3 9.16Q80.87 9.16 82.08 9.82Q82.55 10.09 82.97 10.46Q83.5 10.92 83.88 11.49Q84.55 12.5 84.74 13.83L73.83 13.83Q74.04 12.41 74.79 11.36Q75.15 10.86 75.64 10.44Q76.1 10.04 76.63 9.77ZM145.64 9.77Q146.82 9.16 148.31 9.16Q149.88 9.16 151.09 9.82Q151.56 10.09 151.98 10.46Q152.51 10.92 152.89 11.49Q153.56 12.5 153.75 13.83L142.84 13.83Q143.06 12.41 143.8 11.36Q144.17 10.86 144.65 10.44Q145.12 10.04 145.64 9.77ZM106.87 20.74Q105.66 21.39 104.1 21.39Q102.82 21.39 101.74 20.93Q101.45 20.81 101.18 20.65Q100.74 20.4 100.36 20.07Q99.63 19.45 99.14 18.55Q98.38 17.18 98.38 15.38Q98.38 13.59 99.14 12.22Q99.64 11.29 100.39 10.66Q100.76 10.35 101.18 10.11Q101.45 9.95 101.74 9.83Q102.82 9.37 104.1 9.37Q105.65 9.37 106.85 10.01Q107.59 10.4 108.19 11.03Q108.55 11.4 108.83 11.83Q109.79 13.3 109.79 15.38Q109.79 17.49 108.82 18.95Q108.54 19.37 108.19 19.74Q107.59 20.35 106.87 20.74ZM175.89 20.74Q174.68 21.39 173.11 21.39Q171.83 21.39 170.75 20.93Q170.47 20.81 170.2 20.65Q169.75 20.4 169.37 20.07Q168.65 19.45 168.15 18.55Q167.39 17.18 167.39 15.38Q167.39 13.59 168.15 12.22Q168.66 11.29 169.41 10.66Q169.77 10.35 170.2 10.11Q170.47 9.95 170.75 9.83Q171.83 9.37 173.11 9.37Q174.66 9.37 175.87 10.01Q176.6 10.4 177.2 11.03Q177.56 11.4 177.85 11.83Q178.8 13.3 178.8 15.38Q178.8 17.49 177.83 18.95Q177.56 19.37 177.2 19.74Q176.61 20.35 175.89 20.74ZM130.45 20.89Q129.41 21.75 127.43 21.72L123.33 21.68L123.33 15.17L127.43 15.2Q129.48 15.24 130.49 16Q130.7 16.15 130.87 16.35Q131.5 17.09 131.5 18.37Q131.5 19.64 130.89 20.44Q130.7 20.69 130.45 20.89ZM187.64 25.01Q188.19 25.25 188.85 25.25Q189.49 25.25 190.03 25.02Q190.52 24.81 190.93 24.41Q191.28 24.06 191.49 23.65Q191.8 23.03 191.8 22.26Q191.8 21.34 191.4 20.66Q191.21 20.36 190.95 20.1Q190.62 19.78 190.23 19.58Q189.61 19.27 188.85 19.27Q188.06 19.27 187.44 19.59Q187.06 19.79 186.74 20.1Q186.49 20.35 186.31 20.64Q185.9 21.33 185.9 22.26Q185.9 23.05 186.21 23.67Q186.42 24.07 186.76 24.41Q187.16 24.8 187.64 25.01Z" fill="#FFFFFF" fill-opacity="1.000000" fill-rule="evenodd"/>
</svg>
